<svg width="140" height="30" viewBox="0 0 140 30" fill="none" xmlns="http://www.w3.org/2000/svg">
<path d="M0 20.0198L9.97352 15.505L15.7141 18.8911L16.8738 30L9.79959 29.9404L10.8433 22.2177L9.62562 21.5049L3.65308 26.2576L0 20.0198Z" fill="#1A1D24" fill-opacity="0.2"/>
<path d="M16.3522 18.4153L25.1661 25.0092L28.6452 18.6529L21.5707 15.742V14.3163L28.6452 11.346L25.1661 5.04895L16.3522 11.643V18.4153Z" fill="#1A1D24" fill-opacity="0.6"/>
<path d="M15.7141 11.1089L16.8738 0L9.79959 0.118777L10.8433 7.84157L9.62562 8.55443L3.5951 3.80195L0 9.98015L9.97352 14.495L15.7141 11.1089Z" fill="#1A1D24"/>
<path d="M52.2463 13.6683V24.0756H56.0536V10.8124H50.5089V13.6683H52.2463Z" fill="#1A1D24"/>
<path d="M52.128 8.94918C52.4771 9.32023 53.0085 9.50573 53.7223 9.50573C54.4365 9.50573 54.9597 9.32023 55.2926 8.94918C55.6421 8.56179 55.8162 8.07768 55.8162 7.49699C55.8162 6.89987 55.6421 6.4158 55.2926 6.04476C54.9597 5.65757 54.4365 5.46387 53.7223 5.46387C53.0085 5.46387 52.4771 5.65757 52.128 6.04476C51.7951 6.4158 51.6284 6.89987 51.6284 7.49699C51.6284 8.07768 51.7951 8.56179 52.128 8.94918Z" fill="#1A1D24"/>
<path d="M38.9922 23.7853C40.0708 24.2854 41.3955 24.5357 42.9658 24.5357C44.4414 24.5357 45.7102 24.3014 46.7734 23.8336C47.8363 23.3659 48.6531 22.7122 49.2242 21.8731C49.8115 21.0179 50.1047 20.0257 50.1047 18.8961C50.1047 17.799 49.8276 16.8711 49.2722 16.1127C48.7325 15.3383 47.9794 14.7332 47.0113 14.2977C46.0435 13.8457 44.9252 13.5634 43.656 13.4505L42.3235 13.3295C41.5303 13.2648 40.9592 13.0471 40.6101 12.6759C40.2611 12.3049 40.0865 11.8691 40.0865 11.3691C40.0865 10.9817 40.1821 10.6268 40.3719 10.3041C40.5625 9.96519 40.8479 9.69901 41.2288 9.50527C41.6254 9.31177 42.1093 9.2149 42.6804 9.2149C43.283 9.2149 43.783 9.32777 44.1796 9.55381C44.2668 9.60154 44.3498 9.65259 44.4276 9.7068L44.4465 9.72024C44.4756 9.74071 44.5043 9.76194 44.5322 9.78337C44.7731 9.97067 44.9649 10.1926 45.1076 10.4493C45.3136 10.8043 45.4174 11.1995 45.4174 11.6353H49.2242C49.2242 10.4734 48.9625 9.46493 48.4393 8.60983C47.9157 7.73857 47.1622 7.06896 46.1787 6.60089C45.2106 6.11683 44.0448 5.87476 42.6804 5.87476C41.3793 5.87476 40.2532 6.10083 39.3012 6.55256C38.3496 6.98828 37.6039 7.61755 37.0646 8.44032C36.5407 9.26324 36.2789 10.2396 36.2789 11.3691C36.2789 12.9341 36.795 14.1926 37.826 15.1448C38.857 16.0967 40.2375 16.6453 41.9666 16.7904L43.2755 16.9115C44.338 17.0083 45.1076 17.2262 45.5836 17.5649C46.0592 17.8876 46.2974 18.3314 46.2974 18.8961C46.2974 19.1557 46.2558 19.3991 46.172 19.6265C46.1099 19.7952 46.025 19.9552 45.9169 20.1064C45.6626 20.445 45.29 20.7113 44.7983 20.9052C44.3065 21.0987 43.6957 21.1954 42.9658 21.1954C42.1568 21.1954 41.4984 21.0827 40.991 20.8564C40.4831 20.6145 40.1027 20.2999 39.8483 19.9128C39.6105 19.5253 39.4918 19.106 39.4918 18.6541H35.7081C35.7081 19.7997 35.9856 20.816 36.5407 21.7036C37.0961 22.5751 37.9133 23.2687 38.9922 23.7853Z" fill="#1A1D24"/>
<path d="M64.5482 24.2454C63.2314 24.2454 62.1686 24.0839 61.3596 23.7613C60.5503 23.4223 59.9556 22.8658 59.5747 22.0914C59.2099 21.3006 59.0275 20.2359 59.0275 18.8965V13.6444H57.0524V10.8127H59.0275V7.23071H62.573V10.8127H66.3807V13.6444H62.573V19.0419C62.573 19.6711 62.7318 20.1552 63.049 20.4938C63.382 20.8164 63.8501 20.978 64.4531 20.978H66.3807V24.2454H64.5482Z" fill="#1A1D24"/>
<path fill-rule="evenodd" clip-rule="evenodd" d="M70.9643 23.9545C71.8208 24.3415 72.8047 24.5354 73.9151 24.5354C75.0094 24.5354 75.9775 24.3415 76.8183 23.9545C77.6591 23.5671 78.3572 23.0266 78.9122 22.333C79.4676 21.639 79.8406 20.8482 80.0305 19.9608H76.5325C76.3741 20.364 76.0727 20.703 75.6285 20.9773C75.1843 21.2516 74.6128 21.3887 73.9151 21.3887C73.4827 21.3887 73.0963 21.3367 72.7559 21.2328C72.4969 21.1536 72.2646 21.0445 72.059 20.9049C71.583 20.5819 71.234 20.1302 71.0119 19.5495C70.9502 19.384 70.8975 19.211 70.8531 19.0307C70.8079 18.8481 70.7713 18.6581 70.7438 18.4603H80.2687V17.1533C80.2687 15.9431 80.0147 14.8298 79.5073 13.8133C78.9994 12.7805 78.2617 11.9495 77.2943 11.3203C76.3423 10.6749 75.1682 10.3522 73.772 10.3522C72.7092 10.3522 71.7571 10.5459 70.9164 10.9331C70.0921 11.3041 69.4019 11.8124 68.8465 12.4578C68.2914 13.1032 67.863 13.8375 67.5611 14.6605C67.2757 15.467 67.1331 16.3141 67.1331 17.2016V17.6857C67.1331 18.541 67.2757 19.3799 67.5611 20.2029C67.863 21.0097 68.2914 21.7437 68.8465 22.4053C69.4176 23.0506 70.1231 23.5671 70.9643 23.9545ZM70.8094 16.067C70.8201 16.0158 70.8311 15.9653 70.8432 15.9156C70.8763 15.7788 70.9144 15.6477 70.9576 15.5224C70.982 15.451 71.0079 15.3815 71.0358 15.3139C71.2737 14.7167 71.6227 14.265 72.0826 13.9585C72.2548 13.8439 72.4411 13.7508 72.6411 13.6791C72.9776 13.5588 73.355 13.4986 73.772 13.4986C74.4229 13.4986 74.9618 13.6519 75.3903 13.9585C75.8344 14.2489 76.1678 14.6764 76.3899 15.2412C76.4079 15.2868 76.4248 15.3331 76.4414 15.3801C76.4677 15.4549 76.4921 15.5317 76.5149 15.6105C76.5483 15.7276 76.5777 15.8488 76.6037 15.9741C76.6226 16.0665 76.6387 16.161 76.6532 16.2578H70.7729C70.7839 16.1931 70.7961 16.1296 70.8094 16.067Z" fill="#1A1D24"/>
<path d="M81.8412 24.0757V10.8125H84.8635V14.1531C84.9044 13.9545 84.9512 13.7639 85.0034 13.5811C85.0483 13.4272 85.0962 13.2786 85.1489 13.136C85.4822 12.2324 85.9818 11.5548 86.648 11.1029C87.3143 10.635 88.1311 10.4011 89.0992 10.4011H89.2655C90.2494 10.4011 91.0662 10.635 91.7167 11.1029C92.3829 11.5548 92.8829 12.2324 93.2159 13.136L93.2422 13.2042L93.2646 13.2666C93.2795 13.2225 93.2953 13.1791 93.311 13.136C93.66 12.2324 94.1679 11.5548 94.8341 11.1029C95.5004 10.635 96.3176 10.4011 97.2853 10.4011H97.452C98.435 10.4011 99.2601 10.635 99.9263 11.1029C100.609 11.5548 101.124 12.2324 101.473 13.136C101.822 14.0396 101.997 15.1691 101.997 16.5245V24.0757H98.1894V16.3066C98.1894 15.5805 97.9991 14.9916 97.6182 14.5399C97.2535 14.088 96.7299 13.8621 96.0479 13.8621C95.3656 13.8621 94.8263 14.0962 94.4297 14.564C94.033 15.0158 93.8346 15.6208 93.8346 16.3793V24.0757H90.0033V16.3066C90.0033 15.5805 89.813 14.9916 89.4322 14.5399C89.0674 14.088 88.5517 13.8621 87.8858 13.8621C87.1873 13.8621 86.6402 14.0962 86.2436 14.564C85.847 15.0158 85.6485 15.6208 85.6485 16.3793V24.0757H81.8412Z" fill="#1A1D24"/>
<path fill-rule="evenodd" clip-rule="evenodd" d="M112.166 21.5208V24.0763H115.188V15.9441C115.188 14.7178 114.95 13.7175 114.474 12.9429C113.998 12.1522 113.3 11.5633 112.38 11.1761C111.476 10.7889 110.357 10.5952 109.025 10.5952C108.736 10.5952 108.435 10.5983 108.12 10.6047C107.935 10.6086 107.744 10.6135 107.549 10.6194C107.026 10.6356 106.518 10.6597 106.027 10.692L105.651 10.7178C105.458 10.7314 105.277 10.7449 105.106 10.7585C104.978 10.7686 104.856 10.7788 104.742 10.7889V14.0564C105.233 14.024 105.781 13.9917 106.383 13.9595C106.552 13.9506 106.719 13.9422 106.885 13.9344C107.125 13.9231 107.361 13.9133 107.595 13.9047C107.78 13.8979 107.963 13.8919 108.144 13.8868C108.715 13.8706 109.175 13.8626 109.525 13.8626C110.223 13.8626 110.73 14.032 111.048 14.3709C111.365 14.7098 111.523 15.218 111.523 15.8958V15.9441H109.168C108.01 15.9441 106.986 16.0975 106.098 16.404C105.209 16.6944 104.519 17.1543 104.028 17.7835C103.536 18.3968 103.29 19.1874 103.29 20.1556C103.29 21.0431 103.488 21.8095 103.885 22.4547C104.281 23.084 104.829 23.5681 105.527 23.9068C106.241 24.2458 107.066 24.4153 108.001 24.4153C108.906 24.4153 109.667 24.2458 110.286 23.9068C110.921 23.5681 111.412 23.084 111.761 22.4547C111.823 22.3488 111.88 22.2388 111.934 22.1245C112.009 21.963 112.076 21.7927 112.136 21.6148L112.166 21.5208ZM111.523 19.1632V18.0982H109.144C108.477 18.0982 107.962 18.2676 107.597 18.6065C107.248 18.9292 107.073 19.3729 107.073 19.9377C107.073 20.2035 107.117 20.445 107.204 20.6629C107.291 20.8812 107.422 21.0751 107.597 21.2446C107.962 21.5676 108.477 21.7287 109.144 21.7287C109.271 21.7287 109.393 21.7223 109.512 21.7095C109.608 21.6995 109.702 21.6847 109.793 21.666C109.968 21.6296 110.132 21.578 110.286 21.5108C110.635 21.3497 110.921 21.0835 111.142 20.7121C111.365 20.3411 111.492 19.8246 111.523 19.1632Z" fill="#1A1D24"/>
<path d="M117.467 24.0756V10.8124H120.489V15.1903C120.634 13.9406 120.999 12.9329 121.584 12.1678C122.377 11.1513 123.519 10.6431 125.011 10.6431H125.51V13.983H124.558C123.511 13.983 122.702 14.2734 122.131 14.8543C121.56 15.4191 121.274 16.242 121.274 17.323V24.0756H117.467Z" fill="#1A1D24"/>
<path d="M130.339 17.8802H131.6L135.717 24.0761H140L134.78 16.4668L139.072 10.8129H135.074L130.339 17.1194V6.40796H126.531V24.0761H130.339V17.8802Z" fill="#1A1D24"/>
</svg>
