<svg width="142" height="26" viewBox="0 0 142 26" fill="none" xmlns="http://www.w3.org/2000/svg">
<path d="M45.593 23.0078C43.5542 23.0078 41.7518 22.6074 40.1859 21.8065C38.6201 20.9871 37.4095 19.831 36.5539 18.3382C35.6982 16.8452 35.2704 15.0884 35.2704 13.0675C35.2704 11.0466 35.6982 9.28978 36.5539 7.7969C37.4095 6.28578 38.6201 5.12973 40.1859 4.32866C41.7518 3.50939 43.5542 3.09973 45.593 3.09973C46.9768 3.09973 48.1966 3.2454 49.2525 3.5367C50.3268 3.80979 51.3098 4.24672 52.2017 4.84753V8.80733C51.4008 8.15189 50.4815 7.67855 49.4438 7.38725C48.4242 7.07774 47.2592 6.92301 45.9483 6.92301C44.7285 6.92301 43.6267 7.17789 42.6437 7.68765C41.6789 8.17921 40.9143 8.88923 40.3499 9.81775C39.7855 10.7462 39.5031 11.8295 39.5031 13.0675C39.5031 14.3237 39.7581 15.4252 40.2677 16.3719C40.7959 17.3004 41.5331 18.0195 42.4798 18.5293C43.4265 19.0391 44.519 19.294 45.7569 19.294C46.8857 19.294 47.8687 19.0937 48.7062 18.6931V15.0064H45.6204V11.9479H52.7206V21.1511C50.9182 22.389 48.5426 23.0078 45.593 23.0078Z" fill="#1A1D24"/>
<path d="M53.6797 9.48998H57.6667V11.3743C58.1948 10.7371 58.932 10.2546 59.8787 9.92695C60.8254 9.58102 61.8998 9.40808 63.1011 9.40808V12.5486C61.845 12.5486 60.7344 12.7398 59.7695 13.1221C58.8229 13.5044 58.1674 14.087 57.8032 14.8699V22.5985H53.6797V9.48998Z" fill="#1A1D24"/>
<path d="M71.0259 23.0077C68.5134 23.0077 66.5378 22.4071 65.0996 21.2054C63.6615 19.9857 62.9424 18.2834 62.9424 16.0987C62.9424 13.9322 63.5797 12.2208 64.8539 10.9646C66.1466 9.7084 67.9852 9.08032 70.3705 9.08032C71.936 9.08032 73.265 9.37162 74.3575 9.95418C75.4496 10.5368 76.2783 11.3469 76.8427 12.3847C77.4071 13.4042 77.6891 14.5603 77.6891 15.8529V17.5188H66.875C67.1663 19.1938 68.7317 20.0312 71.5718 20.0312C72.4093 20.0312 73.2742 19.9584 74.1661 19.8127C75.0585 19.6671 75.8323 19.4668 76.4878 19.2119V22.1065C75.8505 22.3797 75.0311 22.5984 74.0296 22.762C73.0285 22.9259 72.027 23.0077 71.0259 23.0077ZM73.7838 14.8425C73.7295 13.9686 73.4015 13.295 72.8009 12.8217C72.2002 12.3301 71.3716 12.0843 70.3157 12.0843C69.278 12.0843 68.4586 12.3301 67.8579 12.8217C67.2573 13.3132 66.9294 13.9868 66.875 14.8425H73.7838Z" fill="#1A1D24"/>
<path d="M86.1413 23.0077C83.6291 23.0077 81.6536 22.4071 80.2154 21.2054C78.7772 19.9857 78.0577 18.2834 78.0577 16.0987C78.0577 13.9322 78.695 12.2208 79.9697 10.9646C81.262 9.7084 83.101 9.08032 85.4859 9.08032C87.0517 9.08032 88.3807 9.37162 89.4733 9.95418C90.5654 10.5368 91.3936 11.3469 91.958 12.3847C92.5224 13.4042 92.8048 14.5603 92.8048 15.8529V17.5188H81.9903C82.2816 19.1938 83.8475 20.0312 86.6876 20.0312C87.5251 20.0312 88.39 19.9584 89.2819 19.8127C90.1738 19.6671 90.9477 19.4668 91.6031 19.2119V22.1065C90.9658 22.3797 90.1468 22.5984 89.1453 22.762C88.1439 22.9259 87.1428 23.0077 86.1413 23.0077ZM88.8996 14.8425C88.8448 13.9686 88.5173 13.295 87.9166 12.8217C87.3156 12.3301 86.4873 12.0843 85.4315 12.0843C84.3937 12.0843 83.5743 12.3301 82.9737 12.8217C82.3727 13.3132 82.0451 13.9868 81.9903 14.8425H88.8996Z" fill="#1A1D24"/>
<path d="M93.7205 9.48994H97.7075V11.1012C98.3085 10.4276 99.0183 9.92691 99.8377 9.59919C100.675 9.25326 101.549 9.08032 102.459 9.08032C104.244 9.08032 105.573 9.56277 106.446 10.5277C107.338 11.4744 107.785 12.7579 107.785 14.3783V22.5984H103.661V14.8425C103.661 13.1493 102.878 12.3028 101.312 12.3028C100.62 12.3028 99.9743 12.4757 99.3732 12.8217C98.7726 13.1493 98.263 13.6409 97.844 14.2963V22.5984H93.7205V9.48994Z" fill="#1A1D24"/>
<path d="M111.423 7.46908C110.786 7.46908 110.249 7.25973 109.812 6.84096C109.374 6.42224 109.156 5.89427 109.156 5.25704C109.156 4.63807 109.374 4.1192 109.812 3.70044C110.249 3.26351 110.786 3.04504 111.423 3.04504C112.06 3.04504 112.597 3.26351 113.034 3.70044C113.471 4.1192 113.689 4.63807 113.689 5.25704C113.689 5.89427 113.471 6.42224 113.034 6.84096C112.597 7.25973 112.06 7.46908 111.423 7.46908ZM109.347 9.48993H113.498V22.5984H109.347V9.48993Z" fill="#1A1D24"/>
<path d="M120.53 23.0077C119.547 23.0077 118.492 22.8985 117.363 22.6802C116.252 22.48 115.378 22.1887 114.741 21.8064V18.5838C115.469 19.0208 116.343 19.3758 117.363 19.6489C118.382 19.922 119.329 20.0585 120.203 20.0585C120.949 20.0585 121.496 19.9948 121.841 19.8674C122.187 19.7399 122.36 19.5032 122.36 19.1573C122.36 18.8842 122.26 18.6658 122.06 18.5019C121.86 18.3199 121.55 18.1651 121.131 18.0377C120.731 17.892 120.057 17.6826 119.11 17.4095C118 17.0819 117.126 16.7541 116.489 16.4264C115.87 16.0805 115.396 15.6527 115.069 15.1429C114.759 14.6331 114.604 13.9777 114.604 13.1766C114.604 11.8112 115.141 10.7917 116.216 10.1181C117.308 9.42621 118.783 9.08032 120.64 9.08032C121.55 9.08032 122.488 9.18043 123.453 9.38073C124.436 9.56277 125.191 9.80855 125.719 10.1181V13.2586C125.191 12.9127 124.5 12.6305 123.644 12.412C122.806 12.1935 121.987 12.0843 121.186 12.0843C120.439 12.0843 119.857 12.1571 119.438 12.3028C119.038 12.4484 118.837 12.7215 118.837 13.1221C118.837 13.4679 119.029 13.7319 119.411 13.914C119.811 14.0961 120.549 14.3236 121.623 14.5967L122.169 14.7333C123.316 15.0428 124.208 15.3887 124.845 15.771C125.483 16.1351 125.929 16.5812 126.184 17.1091C126.457 17.6189 126.593 18.2652 126.593 19.0481C126.593 20.2498 126.074 21.2146 125.037 21.943C123.999 22.6528 122.497 23.0077 120.53 23.0077Z" fill="#1A1D24"/>
<path d="M127.547 2.41675H131.67V10.9918C132.29 10.3546 132.991 9.88121 133.773 9.5717C134.556 9.24398 135.394 9.08014 136.286 9.08014C138.07 9.08014 139.399 9.56259 140.273 10.5275C141.165 11.4742 141.611 12.7577 141.611 14.3781V22.5982H137.488V14.8423C137.488 13.1492 136.704 12.3026 135.139 12.3026C134.447 12.3026 133.801 12.4756 133.2 12.8215C132.599 13.1492 132.089 13.6408 131.67 14.2961V22.5982H127.547V2.41675Z" fill="#1A1D24"/>
<path fill-rule="evenodd" clip-rule="evenodd" d="M21.1877 6.28105C21.1877 9.74998 18.3758 12.5621 14.9069 12.5621C11.4379 12.5621 8.62579 9.74998 8.62579 6.28105C8.62579 2.81212 11.4379 0 14.9069 0C18.3758 0 21.1877 2.81212 21.1877 6.28105ZM0.29662 12.1056C7.13969 11.6444 13.1036 16.7678 13.6591 23.6255C13.7167 24.3361 13.7139 25.0374 13.6552 25.7251C6.81209 26.1864 0.84816 21.0629 0.292632 14.2053C0.235106 13.4947 0.237845 12.7931 0.29662 12.1056ZM18.0827 25.485C24.9403 24.9295 30.0637 18.9655 29.6024 12.1224C28.9148 12.0637 28.2134 12.0609 27.5028 12.1185C20.6451 12.674 15.5218 18.6379 15.9831 25.481C16.6706 25.5398 17.3721 25.5426 18.0827 25.485Z" fill="#1A1D24"/>
</svg>
