<svg width="134" height="26" viewBox="0 0 134 26" fill="none" xmlns="http://www.w3.org/2000/svg">
<path d="M3.58325 2.87842C5.40186 1.14209 7.8713 0.128632 10.3741 0.0025706C11.2307 0.0025706 12.0899 0.00771005 12.9465 0C12.9027 0.918324 12.9465 1.83922 12.9207 2.7575C12.7998 4.8102 12.041 6.8166 10.7626 8.42687C9.10085 10.5928 6.55941 12.0461 3.86107 12.4217C2.68296 12.612 1.48681 12.4911 0.300986 12.5246C0.321546 11.5136 0.257252 10.5002 0.337009 9.49181C0.568529 6.99153 1.74921 4.59671 3.58325 2.87842Z" fill="#1A1D24" fill-opacity="0.2"/>
<path d="M13.7396 0C14.6579 0.0102801 15.5763 -0.00514053 16.4972 0.00513954C18.7891 0.167181 21.0501 1.04691 22.776 2.57233C24.6796 4.20572 25.9837 6.54139 26.3183 9.03653C26.4646 10.194 26.3723 11.3644 26.4289 12.5271C25.6261 12.5246 24.8264 12.522 24.0236 12.5271C22.0507 12.4731 20.1113 11.8352 18.4598 10.76C17.6984 10.2146 16.9164 9.66161 16.3454 8.90532C15.0927 7.50602 14.2413 5.74913 13.9197 3.89706C13.6779 2.61087 13.7756 1.29903 13.7396 0Z" fill="#1A1D24"/>
<path d="M0.302839 13.2628C1.11827 13.3091 1.93628 13.2242 2.7491 13.3143C6.22943 13.3888 9.60691 15.3438 11.4101 18.32C12.4442 19.9868 12.9998 21.9624 12.9278 23.9252C12.9251 24.5681 12.9355 25.2085 12.9174 25.8492C11.6262 25.8105 10.322 25.9159 9.04355 25.6663C6.20373 25.188 3.59285 23.4979 2.02113 21.0852C0.83017 19.3309 0.235973 17.1881 0.297697 15.0711C0.297697 14.4666 0.297699 13.8647 0.302839 13.2628Z" fill="#1A1D24"/>
<path d="M22.083 13.5353C23.4826 13.2241 24.9253 13.2755 26.3479 13.2755L26.4098 13.3373C26.3788 14.6826 26.4842 16.0433 26.2142 17.3732C25.6457 20.3571 23.6703 23.0222 21.013 24.4858C19.359 25.4066 17.4606 25.8592 15.57 25.8388C14.9655 25.8414 14.3584 25.8283 13.7539 25.8466C13.7539 24.7328 13.7076 23.6137 13.8337 22.5051C14.1269 19.822 15.5777 17.3243 17.6638 15.6369C18.9551 14.6183 20.4728 13.88 22.083 13.5353Z" fill="#1A1D24" fill-opacity="0.6"/>
<path d="M36.9692 20.8666C36.9692 21.3194 36.8124 21.7026 36.4992 22.0161C36.203 22.3123 35.8284 22.4604 35.3758 22.4604C34.9402 22.4604 34.5743 22.3123 34.2785 22.0161C33.9823 21.7026 33.8342 21.3194 33.8342 20.8666V4.72062C33.8342 4.26778 33.9823 3.8933 34.2785 3.59722C34.5917 3.28372 34.9751 3.12695 35.4281 3.12695C35.8807 3.12695 36.2466 3.28372 36.5253 3.59722C36.8211 3.8933 36.9692 4.26778 36.9692 4.72062V20.8666Z" fill="#1A1D24"/>
<path d="M49.553 8.48303C50.0055 8.48303 50.3801 8.63976 50.6764 8.9533C50.9721 9.24938 51.1202 9.62386 51.1202 10.0767V16.7127C51.1202 18.559 50.6067 20.0221 49.5791 21.1019C48.5511 22.1818 47.0709 22.7219 45.1373 22.7219C43.2041 22.7219 41.7236 22.1818 40.696 21.1019C39.6858 20.0221 39.1805 18.559 39.1805 16.7127V10.0767C39.1805 9.62386 39.3286 9.24938 39.6249 8.9533C39.9211 8.63976 40.2952 8.48303 40.7483 8.48303C41.2013 8.48303 41.5754 8.63976 41.8717 8.9533C42.1679 9.24938 42.316 9.62386 42.316 10.0767V16.7127C42.316 17.7752 42.5512 18.5677 43.0212 19.0902C43.4916 19.5953 44.1969 19.8479 45.1373 19.8479C46.0956 19.8479 46.8096 19.5953 47.28 19.0902C47.75 18.5677 47.9852 17.7752 47.9852 16.7127V10.0767C47.9852 9.62386 48.1333 9.24938 48.4296 8.9533C48.7253 8.63976 49.0999 8.48303 49.553 8.48303Z" fill="#1A1D24"/>
<path d="M60.5499 8.22168C61.9434 8.22168 62.9709 8.56131 63.6331 9.24058C64.2947 9.90247 64.7303 10.7646 64.939 11.8271L64.4951 11.5919L64.7042 11.1739C64.9128 10.7733 65.2352 10.3466 65.6708 9.89376C66.1059 9.42349 66.6286 9.03158 67.238 8.71809C67.8653 8.38712 68.5618 8.22168 69.3285 8.22168C70.5826 8.22168 71.5317 8.49166 72.176 9.03158C72.8381 9.5715 73.2907 10.2943 73.5346 11.2001C73.7785 12.0883 73.9005 13.0811 73.9005 14.1784V20.8667C73.9005 21.3196 73.7524 21.7028 73.4562 22.0162C73.16 22.3124 72.7858 22.4605 72.3328 22.4605C71.8802 22.4605 71.5056 22.3124 71.2094 22.0162C70.9132 21.7028 70.7651 21.3196 70.7651 20.8667V14.1784C70.7651 13.6036 70.6958 13.0899 70.5564 12.637C70.417 12.1667 70.1644 11.7923 69.7985 11.5136C69.433 11.2349 68.9103 11.0956 68.2312 11.0956C67.5691 11.0956 67.0033 11.2349 66.5328 11.5136C66.0624 11.7923 65.7056 12.1667 65.4617 12.637C65.2352 13.0899 65.1219 13.6036 65.1219 14.1784V20.8667C65.1219 21.3196 64.9738 21.7028 64.6781 22.0162C64.3818 22.3124 64.0072 22.4605 63.5547 22.4605C63.1016 22.4605 62.727 22.3124 62.4312 22.0162C62.135 21.7028 61.9869 21.3196 61.9869 20.8667V14.1784C61.9869 13.6036 61.9172 13.0899 61.7778 12.637C61.6385 12.1667 61.3858 11.7923 61.0203 11.5136C60.6544 11.2349 60.1317 11.0956 59.4526 11.0956C58.791 11.0956 58.2247 11.2349 57.7542 11.5136C57.2842 11.7923 56.9271 12.1667 56.6831 12.637C56.457 13.0899 56.3438 13.6036 56.3438 14.1784V20.8667C56.3438 21.3196 56.1957 21.7028 55.8995 22.0162C55.6033 22.3124 55.2291 22.4605 54.7761 22.4605C54.3231 22.4605 53.9489 22.3124 53.6527 22.0162C53.3565 21.7028 53.2084 21.3196 53.2084 20.8667V10.0766C53.2084 9.62378 53.3565 9.24929 53.6527 8.95322C53.9489 8.63968 54.3231 8.48295 54.7761 8.48295C55.2291 8.48295 55.6033 8.63968 55.8995 8.95322C56.1957 9.24929 56.3438 9.62378 56.3438 10.0766V11.2001L55.9518 11.1217C56.1086 10.8256 56.3264 10.512 56.6047 10.1811C56.8835 9.83277 57.2233 9.51056 57.624 9.21445C58.0243 8.91837 58.4686 8.68324 58.9561 8.50904C59.4439 8.31747 59.9754 8.22168 60.5499 8.22168Z" fill="#1A1D24"/>
<path d="M78.9395 20.8669C78.9395 21.3198 78.7914 21.703 78.4952 22.0164C78.1994 22.3126 77.8248 22.4607 77.3718 22.4607C76.9192 22.4607 76.5446 22.3126 76.2483 22.0164C75.9526 21.703 75.8045 21.3198 75.8045 20.8669V10.0768C75.8045 9.62397 75.9526 9.24948 76.2483 8.95341C76.5446 8.63987 76.9192 8.48314 77.3718 8.48314C77.8248 8.48314 78.1994 8.63987 78.4952 8.95341C78.7914 9.24948 78.9395 9.62397 78.9395 10.0768V20.8669ZM77.3456 6.78493C76.7536 6.78493 76.3355 6.68914 76.0915 6.49752C75.848 6.30594 75.7261 5.96631 75.7261 5.47862V4.98221C75.7261 4.47714 75.8568 4.13746 76.1177 3.96331C76.3965 3.77173 76.8146 3.6759 77.3718 3.6759C77.9816 3.6759 78.4085 3.77173 78.652 3.96331C78.8959 4.15488 79.0179 4.49452 79.0179 4.98221V5.47862C79.0179 5.98373 78.8872 6.33208 78.6258 6.52366C78.3649 6.69785 77.938 6.78493 77.3456 6.78493Z" fill="#1A1D24"/>
<path d="M88.3271 8.22168C89.616 8.22168 90.5913 8.49166 91.253 9.03158C91.9325 9.5715 92.3938 10.2943 92.6377 11.2001C92.8991 12.0883 93.0298 13.0811 93.0298 14.1784V20.8667C93.0298 21.3196 92.8817 21.7028 92.5855 22.0162C92.2893 22.3124 91.9151 22.4605 91.4621 22.4605C91.0095 22.4605 90.6349 22.3124 90.3387 22.0162C90.0424 21.7028 89.8943 21.3196 89.8943 20.8667V14.1784C89.8943 13.6036 89.8164 13.0899 89.6596 12.637C89.5202 12.1667 89.2588 11.7923 88.8755 11.5136C88.4926 11.2349 87.9437 11.0956 87.2298 11.0956C86.5329 11.0956 85.9409 11.2349 85.453 11.5136C84.983 11.7923 84.6171 12.1667 84.3557 12.637C84.1118 13.0899 83.9898 13.6036 83.9898 14.1784V20.8667C83.9898 21.3196 83.8422 21.7028 83.546 22.0162C83.2498 22.3124 82.8752 22.4605 82.4226 22.4605C81.9695 22.4605 81.5949 22.3124 81.2992 22.0162C81.003 21.7028 80.8549 21.3196 80.8549 20.8667V10.0766C80.8549 9.62378 81.003 9.24929 81.2992 8.95322C81.5949 8.63968 81.9695 8.48295 82.4226 8.48295C82.8752 8.48295 83.2498 8.63968 83.546 8.95322C83.8422 9.24929 83.9898 9.62378 83.9898 10.0766V11.2001L83.5982 11.1217C83.7551 10.8256 83.9811 10.512 84.2773 10.1811C84.5735 9.83277 84.922 9.51056 85.3223 9.21445C85.7231 8.91837 86.1761 8.68324 86.681 8.50904C87.1862 8.31747 87.7347 8.22168 88.3271 8.22168Z" fill="#1A1D24"/>
<path d="M108.541 15.4847C108.541 16.913 108.219 18.1757 107.575 19.273C106.948 20.3529 106.094 21.1977 105.014 21.8071C103.952 22.4169 102.759 22.7218 101.435 22.7218C100.111 22.7218 98.9096 22.4169 97.8297 21.8071C96.7673 21.1977 95.914 20.3529 95.2693 19.273C94.6425 18.1757 94.3289 16.913 94.3289 15.4847C94.3289 14.0565 94.6425 12.8025 95.2693 11.7226C95.914 10.6253 96.7673 9.77184 97.8297 9.16222C98.9096 8.53518 100.111 8.22168 101.435 8.22168C102.759 8.22168 103.952 8.53518 105.014 9.16222C106.094 9.77184 106.948 10.6253 107.575 11.7226C108.219 12.8025 108.541 14.0565 108.541 15.4847ZM105.407 15.4847C105.407 14.5965 105.224 13.8301 104.858 13.1856C104.509 12.5238 104.03 12.01 103.421 11.6442C102.829 11.2784 102.167 11.0956 101.435 11.0956C100.704 11.0956 100.033 11.2784 99.4236 11.6442C98.8312 12.01 98.352 12.5238 97.9865 13.1856C97.6381 13.8301 97.4638 14.5965 97.4638 15.4847C97.4638 16.3556 97.6381 17.122 97.9865 17.7838C98.352 18.4283 98.8312 18.9334 99.4236 19.2991C100.033 19.6649 100.704 19.8478 101.435 19.8478C102.167 19.8478 102.829 19.6649 103.421 19.2991C104.03 18.9334 104.509 18.4283 104.858 17.7838C105.224 17.122 105.407 16.3556 105.407 15.4847Z" fill="#1A1D24"/>
<path d="M120.226 8.48303C120.679 8.48303 121.054 8.63976 121.35 8.9533C121.646 9.24938 121.794 9.62386 121.794 10.0767V16.7127C121.794 18.559 121.28 20.0221 120.252 21.1019C119.225 22.1818 117.745 22.7219 115.811 22.7219C113.878 22.7219 112.397 22.1818 111.37 21.1019C110.36 20.0221 109.854 18.559 109.854 16.7127V10.0767C109.854 9.62386 110.002 9.24938 110.299 8.9533C110.595 8.63976 110.969 8.48303 111.422 8.48303C111.875 8.48303 112.249 8.63976 112.545 8.9533C112.842 9.24938 112.99 9.62386 112.99 10.0767V16.7127C112.99 17.7752 113.224 18.5677 113.695 19.0902C114.165 19.5953 114.871 19.8479 115.811 19.8479C116.769 19.8479 117.483 19.5953 117.953 19.0902C118.424 18.5677 118.659 17.7752 118.659 16.7127V10.0767C118.659 9.62386 118.807 9.24938 119.103 8.9533C119.399 8.63976 119.774 8.48303 120.226 8.48303Z" fill="#1A1D24"/>
<path d="M123.072 20.292C122.898 20.0481 122.819 19.7346 122.837 19.3514C122.854 18.9682 123.081 18.6373 123.516 18.3586C123.794 18.1844 124.091 18.1148 124.404 18.1496C124.718 18.167 125.022 18.3238 125.319 18.6199C125.824 19.125 126.355 19.5169 126.912 19.7956C127.47 20.0742 128.167 20.2136 129.002 20.2136C129.264 20.1961 129.551 20.1613 129.865 20.1091C130.178 20.0394 130.448 19.9001 130.674 19.6911C130.918 19.4646 131.04 19.125 131.04 18.6721C131.04 18.289 130.91 17.9841 130.648 17.7577C130.387 17.5313 130.039 17.3397 129.603 17.1829C129.185 17.0262 128.715 16.8781 128.193 16.7388C127.653 16.582 127.095 16.4079 126.52 16.2163C125.963 16.0247 125.449 15.7808 124.979 15.4847C124.509 15.1712 124.126 14.7619 123.829 14.2568C123.534 13.7517 123.385 13.116 123.385 12.3496C123.385 11.4787 123.629 10.7385 124.117 10.1289C124.605 9.51928 125.232 9.04901 125.998 8.71809C126.782 8.38712 127.6 8.22168 128.454 8.22168C128.994 8.22168 129.56 8.29133 130.152 8.43068C130.744 8.5526 131.31 8.7616 131.85 9.05772C132.39 9.33637 132.843 9.71085 133.209 10.1811C133.4 10.4424 133.514 10.7559 133.548 11.1217C133.583 11.4874 133.418 11.8184 133.052 12.1145C132.791 12.3235 132.486 12.4193 132.137 12.4018C131.789 12.367 131.502 12.2451 131.275 12.0361C130.979 11.6529 130.579 11.3481 130.074 11.1217C129.586 10.8952 129.02 10.782 128.375 10.782C128.114 10.782 127.827 10.8169 127.513 10.8865C127.217 10.9388 126.956 11.0694 126.73 11.2784C126.503 11.47 126.39 11.7835 126.39 12.219C126.39 12.6196 126.52 12.9418 126.782 13.1856C127.043 13.4121 127.391 13.6036 127.827 13.7604C128.279 13.8998 128.759 14.0391 129.264 14.1784C129.786 14.3178 130.318 14.4832 130.857 14.6748C131.397 14.8664 131.894 15.119 132.347 15.4325C132.8 15.746 133.165 16.1553 133.444 16.6604C133.723 17.1481 133.862 17.7751 133.862 18.5415C133.862 19.4298 133.601 20.1875 133.078 20.8145C132.556 21.4415 131.902 21.9203 131.119 22.2514C130.335 22.565 129.533 22.7218 128.715 22.7218C127.687 22.7218 126.66 22.5476 125.632 22.1991C124.605 21.8332 123.751 21.1977 123.072 20.292Z" fill="#1A1D24"/>
</svg>
