<svg width="136" height="23" viewBox="0 0 136 23" fill="none" xmlns="http://www.w3.org/2000/svg">
<path fill-rule="evenodd" clip-rule="evenodd" d="M14.2467 0.547363C12.095 0.547363 10.3508 2.29162 10.3508 4.44325C10.3508 6.5949 12.095 8.33913 14.2467 8.33913C16.3984 8.33913 18.1426 6.5949 18.1426 4.44325C18.1426 2.29162 16.3984 0.547363 14.2467 0.547363ZM6.62935 8.12657C10.6847 8.12657 13.9723 11.4141 13.9723 15.4695V21.4879H10.3199V15.4695C10.3199 15.0375 10.2457 14.6231 10.1094 14.2379L4.74455 19.6027L2.16191 17.02L7.33558 11.8465C7.10699 11.8022 6.87087 11.779 6.62935 11.779H0.611084V8.12657H6.62935ZM21.9549 8.12657C17.8996 8.12657 14.6119 11.4141 14.6119 15.4695V21.4879H18.2643V15.4695C18.2643 15.1312 18.3099 14.8035 18.3951 14.4923L24.0071 20.1043L26.5898 17.5216L20.9778 11.9097C21.289 11.8245 21.6167 11.779 21.9549 11.779H27.9731V8.12657H21.9549Z" fill="#1A1D24"/>
<path d="M33.8167 21.6987V0.7052H39.7623L46.1369 18.6952H46.5966V0.7052H49.9985V21.6987H44.1756L37.6475 3.678H37.2185V21.6987H33.8167Z" fill="#1A1D24"/>
<path d="M63.6272 18.94L64.4853 18.8482L64.5467 21.3306C62.2174 21.8006 60.1538 22.0355 58.3559 22.0355C56.088 22.0355 54.4534 21.4122 53.4524 20.166C52.4716 18.9196 51.9812 16.9275 51.9812 14.1897C51.9812 8.75488 54.198 6.03748 58.6317 6.03748C62.9223 6.03748 65.0677 8.37688 65.0677 13.0558L64.8532 15.4461H55.3524C55.3728 16.713 55.6487 17.6427 56.18 18.2351C56.7111 18.8278 57.7021 19.1239 59.1528 19.1239C60.6033 19.1239 62.0949 19.0627 63.6272 18.94ZM61.7884 12.8719C61.7884 11.3599 61.5432 10.3077 61.0528 9.71517C60.5831 9.10222 59.7759 8.79574 58.6317 8.79574C57.4876 8.79574 56.6499 9.11243 56.1186 9.7458C55.6078 10.3792 55.3421 11.4212 55.3219 12.8719H61.7884Z" fill="#1A1D24"/>
<path d="M74.9919 9.22488H70.7625V15.9673C70.7625 17.2137 70.8545 18.0411 71.0383 18.4497C71.2222 18.8583 71.6921 19.0628 72.4482 19.0628L74.9613 18.9708L75.1144 21.637C73.7455 21.9027 72.7036 22.0356 71.9885 22.0356C70.2519 22.0356 69.0566 21.637 68.4028 20.8403C67.7692 20.0434 67.4527 18.5417 67.4527 16.3352V9.22488H65.4911V6.37468H67.4527V1.93079H70.7625V6.37468H74.9919V9.22488Z" fill="#1A1D24"/>
<path d="M75.0039 6.37463H78.2833L80.7043 18.8483H81.3172L84.2289 6.68112H87.6614L90.5728 18.8483H91.1857L93.5763 6.37463H96.8861L93.6374 21.6983H88.3356L85.945 11.1863L83.5546 21.6983H78.2526L75.0039 6.37463Z" fill="#1A1D24"/>
<path d="M99.0183 8.02956C100.081 6.7015 101.838 6.03748 104.29 6.03748C106.741 6.03748 108.488 6.7015 109.53 8.02956C110.593 9.3576 111.124 11.3497 111.124 14.0059C111.124 16.6619 110.613 18.6641 109.591 20.0126C108.57 21.3613 106.803 22.0355 104.29 22.0355C101.777 22.0355 100.009 21.3613 98.9876 20.0126C97.9659 18.6641 97.4553 16.6619 97.4553 14.0059C97.4553 11.3497 97.9762 9.3576 99.0183 8.02956ZM101.531 17.9899C102.001 18.8073 102.921 19.2159 104.29 19.2159C105.659 19.2159 106.578 18.8073 107.048 17.9899C107.518 17.1727 107.753 15.8345 107.753 13.9752C107.753 12.1159 107.497 10.798 106.987 10.0216C106.496 9.24523 105.597 8.85703 104.29 8.85703C102.982 8.85703 102.073 9.24523 101.562 10.0216C101.072 10.798 100.826 12.1159 100.826 13.9752C100.826 15.8345 101.061 17.1727 101.531 17.9899Z" fill="#1A1D24"/>
<path d="M112.91 21.6983V6.37459H116.22V8.21345C117.956 7.08971 119.693 6.36436 121.43 6.03748V9.37805C119.673 9.72537 118.171 10.1749 116.925 10.7265L116.251 11.0023V21.6983H112.91Z" fill="#1A1D24"/>
<path d="M125.792 21.6984H122.452V0H125.792V12.5348L127.693 12.3509L131.309 6.37467H135.048L130.635 13.5462L135.293 21.6984H131.523L127.785 15.2317L125.792 15.4462V21.6984Z" fill="#1A1D24"/>
</svg>
