<svg width="130" height="27" viewBox="0 0 130 27" fill="none" xmlns="http://www.w3.org/2000/svg">
<path d="M105.165 1.22766V25.1703H108.669V1.22766H105.165Z" fill="#1A1D24"/>
<path fill-rule="evenodd" clip-rule="evenodd" d="M73.4795 25.5567C72.0966 25.5567 70.9415 25.2347 70.0139 24.5904C69.9123 24.5201 69.8138 24.4468 69.7177 24.3706V25.1703H66.6257V1.61414H70.1557V11.7055C71.0217 11.1488 72.0693 10.8703 73.299 10.8703C74.6302 10.8703 75.7896 11.1881 76.7774 11.8237C77.7652 12.4592 78.5295 13.331 79.0704 14.4389C79.6201 15.5383 79.8948 16.7965 79.8948 18.2134C79.8948 19.6048 79.6244 20.8545 79.0833 21.9626C78.551 23.0704 77.8036 23.9464 76.8419 24.5904C75.8799 25.2347 74.7592 25.5567 73.4795 25.5567ZM70.0268 15.9978C69.8205 16.6332 69.7177 17.3717 69.7177 18.2134C69.7177 19.0551 69.8205 19.7939 70.0268 20.4293C70.2328 21.065 70.568 21.5586 71.0315 21.911C71.5039 22.2631 72.131 22.439 72.9125 22.439C73.6682 22.439 74.2868 22.2502 74.7678 21.8723C75.2488 21.4945 75.6051 20.9877 75.8369 20.352C76.0689 19.708 76.1847 18.9952 76.1847 18.2134C76.1847 17.4405 76.0646 16.7363 75.824 16.1009C75.5836 15.4566 75.2101 14.9456 74.7033 14.5677C74.2051 14.1812 73.5651 13.988 72.7836 13.988C72.0536 13.988 71.4609 14.1641 71.006 14.5162C70.5594 14.8683 70.2328 15.3621 70.0268 15.9978Z" fill="#1A1D24"/>
<path d="M61.0857 16.951V25.1704H64.5896V16.0237C64.5896 14.5034 64.1817 13.2752 63.3658 12.3391C62.5585 11.3944 61.3604 10.922 59.7716 10.922C58.844 10.922 57.998 11.1281 57.2337 11.5404C56.5339 11.9141 55.9629 12.4278 55.5209 13.0814C55.1912 12.4882 54.7357 12.0003 54.1546 11.6177C53.4591 11.1539 52.5658 10.922 51.4752 10.922C50.5218 10.922 49.6586 11.1324 48.8857 11.5533C48.3016 11.8749 47.8077 12.2842 47.404 12.7813V11.2569H44.3124V25.1704H47.8421V16.745C47.8421 15.9463 48.0612 15.2978 48.4993 14.7997C48.9459 14.293 49.534 14.0396 50.264 14.0396C51.0286 14.0396 51.6253 14.2973 52.0547 14.8126C52.4928 15.3193 52.7119 16.0323 52.7119 16.951V25.1704H56.2158V16.745C56.2158 16.2125 56.3147 15.7443 56.5124 15.3408C56.7183 14.9285 57.0017 14.6108 57.3626 14.3875C57.7233 14.1556 58.1484 14.0396 58.638 14.0396C59.4024 14.0396 59.9991 14.2973 60.4285 14.8126C60.8665 15.3193 61.0857 16.0323 61.0857 16.951Z" fill="#1A1D24"/>
<path d="M31.7577 25.0283C32.4447 25.3976 33.3336 25.5824 34.4245 25.5824C35.7899 25.5824 36.9195 25.2862 37.8127 24.6934C38.2366 24.415 38.6102 24.0955 38.9334 23.7354V25.1701H42.0254V11.2567H38.4954V18.3164C38.4954 19.1753 38.3966 19.8708 38.1992 20.4034C38.0101 20.9274 37.7655 21.3267 37.4646 21.6015C37.1641 21.8679 36.8421 22.0481 36.4987 22.1426C36.1552 22.2372 35.8329 22.2844 35.5324 22.2844C34.7852 22.2844 34.2054 22.1168 33.7931 21.7819C33.3895 21.4471 33.0976 21.0305 32.9171 20.5323C32.7369 20.0341 32.6295 19.5402 32.5951 19.0506C32.5607 18.5528 32.5435 18.1448 32.5435 17.8268V11.2567H28.988V19.0635C28.988 19.2956 29.0049 19.6649 29.0393 20.1717C29.0737 20.6784 29.1725 21.2408 29.3358 21.8593C29.4988 22.4689 29.7696 23.0574 30.1474 23.6243C30.5339 24.1909 31.0707 24.659 31.7577 25.0283Z" fill="#1A1D24"/>
<path d="M81.4414 11.257V25.1704H84.9711V18.0591C84.9711 17.5265 85.0442 17.0498 85.1903 16.629C85.3364 16.1996 85.5509 15.8303 85.8343 15.5212C86.1179 15.2034 86.4657 14.95 86.8779 14.7611C87.2902 14.5636 87.7497 14.4476 88.2565 14.4132C88.7715 14.3703 89.2224 14.4089 89.6089 14.5292V11.257C89.1881 11.2054 88.7672 11.1968 88.3464 11.2312C87.9256 11.257 87.5176 11.3299 87.1226 11.4502C86.7275 11.5619 86.3625 11.7207 86.0276 11.9269C85.5896 12.1845 85.2203 12.5109 84.9198 12.906C84.7774 13.093 84.6485 13.2896 84.5331 13.4959V11.257H81.4414Z" fill="#1A1D24"/>
<path fill-rule="evenodd" clip-rule="evenodd" d="M96.987 25.5567C95.5612 25.5567 94.303 25.2519 93.2124 24.642C92.13 24.0238 91.2798 23.1778 90.6616 22.1041C90.0516 21.0221 89.7468 19.7853 89.7468 18.3939C89.7468 16.8738 90.0473 15.5512 90.6487 14.426C91.2497 13.3009 92.0785 12.4292 93.135 11.8108C94.1912 11.1839 95.4068 10.8704 96.7807 10.8704C98.2409 10.8704 99.482 11.2139 100.504 11.901C101.526 12.5881 102.282 13.5543 102.771 14.7996C103.261 16.0451 103.433 17.5092 103.287 19.1926H93.5172C93.6264 20.0278 93.8858 20.7062 94.2944 21.228C94.8613 21.9325 95.6901 22.2846 96.7807 22.2846C97.468 22.2846 98.0561 22.1342 98.5457 21.8337C99.0353 21.5331 99.4089 21.0994 99.6664 20.5325L103.171 21.5374C102.647 22.8085 101.818 23.796 100.684 24.5002C99.5593 25.2046 98.3269 25.5567 96.987 25.5567ZM99.1385 14.8512C99.4378 15.258 99.6388 15.8379 99.7413 16.5902H93.6093C93.7459 15.9478 93.9742 15.4195 94.2944 15.0057C94.8613 14.2757 95.7417 13.9107 96.9354 13.9107C97.9576 13.9107 98.6918 14.2242 99.1385 14.8512Z" fill="#1A1D24"/>
<path d="M111.5 25.1703V1.22766H115.005V25.1703H111.5Z" fill="#1A1D24"/>
<path fill-rule="evenodd" clip-rule="evenodd" d="M118.906 24.9898C119.602 25.3676 120.448 25.5567 121.444 25.5567C122.646 25.5567 123.638 25.3505 124.42 24.9382C125.043 24.6064 125.631 24.1146 126.185 23.4624V25.1703H129.251V16.6676C129.251 16.0322 129.225 15.4566 129.173 14.9413C129.122 14.426 128.959 13.9107 128.684 13.3954C128.194 12.4678 127.473 11.8151 126.52 11.4372C125.566 11.0593 124.476 10.8704 123.247 10.8704C121.573 10.8704 120.25 11.2311 119.279 11.9525C118.309 12.6739 117.648 13.6101 117.296 14.761L120.465 15.7657C120.688 15.1303 121.079 14.688 121.637 14.4389C122.195 14.1898 122.732 14.0653 123.247 14.0653C124.175 14.0653 124.836 14.2585 125.231 14.645C125.542 14.9485 125.73 15.387 125.797 15.9607C125.203 16.0506 124.641 16.1359 124.111 16.2167C123.209 16.3456 122.401 16.4831 121.689 16.6289C120.976 16.775 120.362 16.9426 119.846 17.1314C119.099 17.4061 118.502 17.7499 118.056 18.1621C117.617 18.5658 117.3 19.0336 117.102 19.5662C116.905 20.0987 116.806 20.6872 116.806 21.3312C116.806 22.1041 116.982 22.8125 117.334 23.4568C117.695 24.0922 118.219 24.6033 118.906 24.9898ZM123.814 22.4648C123.376 22.6882 122.835 22.8 122.191 22.8C121.787 22.8 121.439 22.7398 121.147 22.6195C120.856 22.4991 120.628 22.3275 120.465 22.1041C120.31 21.8723 120.233 21.5973 120.233 21.2796C120.233 21.0478 120.28 20.8373 120.375 20.6485C120.477 20.4594 120.632 20.2878 120.838 20.1331C121.053 19.9698 121.332 19.8197 121.676 19.6822C121.976 19.5705 122.324 19.4673 122.719 19.3731C123.114 19.2785 123.634 19.1754 124.278 19.0637C124.692 18.9866 125.187 18.8985 125.764 18.8C125.756 19.045 125.742 19.3218 125.721 19.6306C125.695 20.1288 125.592 20.5668 125.412 20.9447C125.317 21.1421 125.137 21.387 124.871 21.6789C124.613 21.9709 124.261 22.233 123.814 22.4648Z" fill="#1A1D24"/>
<path fill-rule="evenodd" clip-rule="evenodd" d="M9.64969 11.3574H0.134033V15.5013C0.134033 21.6889 5.15019 26.7052 11.3379 26.7052C17.5257 26.7052 22.542 21.6889 22.542 15.5013V11.3574H12.7193V4.75783C12.7193 2.13016 10.5891 0 7.96143 0C5.33375 0 3.2036 2.13016 3.2036 4.75783H6.27316C6.27316 3.82542 7.02905 3.06957 7.96143 3.06957C8.89384 3.06957 9.64969 3.82542 9.64969 4.75783V11.3574ZM9.64969 14.427V20.2591H12.7193V14.427H19.4724V15.5013C19.4724 19.9939 15.8304 23.6357 11.3379 23.6357C6.84548 23.6357 3.2036 19.9939 3.2036 15.5013V14.427H9.64969Z" fill="#1A1D24"/>
</svg>
